<svg xmlns="http://www.w3.org/2000/svg" viewBox="0 0 64 64" width="64" height="64">
  <!-- White background -->
  <rect width="64" height="64" fill="white"/>
  
  <!-- Dendrites - exact paths from landing page, scaled 30% bigger to fit icon -->
  <!-- Scaling: Scale factor = 0.325 (0.25 * 1.3), soma (150,200) -> (32,32) -->
  <!-- Formula: new_x = (old_x - 150) * 0.325 + 32, new_y = (old_y - 200) * 0.325 + 32 -->
  <g stroke="black" stroke-width="0.65" stroke-linecap="round" stroke-linejoin="round" fill="none">
    <!-- Primary branches from soma -->
    <path d="M32 32 L24.39 24.39 L17.49 19.41 L9.57 13.82" />
    <path d="M32 32 L26.49 34.39 L20.01 36.39 L13.01 38.36" />
    <path d="M32 32 L39.61 24.39 L45.94 19.86 L52.63 15.69" />
    <path d="M32 32 L38.89 34.39 L45.00 36.03 L51.38 37.81" />
    <path d="M32 32 L26.05 30.93 L19.57 29.93 L12.98 29.01" />
    <path d="M32 32 L28.66 33.64 L25.36 35.84 L21.69 37.69" />
    <path d="M32 32 L31.19 29.59 L29.78 27.31 L27.95 25.61" />
    <path d="M32 32 L32.73 34.73 L33.71 36.34 L34.73 37.94" />
    <path d="M32 32 L34.32 29.68 L37.14 28.02 L40.21 26.57" />
    <path d="M32 32 L30.53 33.84 L30.24 34.61 L29.97 35.37" />
    <path d="M32 32 L30.34 29.53 L30.13 28.35 L29.68 27.22" />
    <path d="M32 32 L30.24 30.94 L28.94 30.82 L27.29 30.82" />

    <!-- Sub-branches -->
    <path d="M24.39 24.39 L22.14 23.64 L19.74 22.93" />
    <path d="M24.39 24.39 L23.14 24.15 L21.54 23.87" />
    <path d="M26.49 34.39 L23.35 35.30 L19.82 36.20" />
    <path d="M26.49 34.39 L24.69 35.17 L23.54 35.97" />
    <path d="M39.61 24.39 L41.86 23.71 L44.13 23.26" />
    <path d="M39.61 24.39 L40.90 24.83 L42.43 24.85" />
    <path d="M38.89 34.39 L40.79 35.31 L42.87 36.23" />
    <path d="M38.89 34.39 L40.44 36.03 L40.98 37.55" />
    <path d="M26.05 30.93 L24.48 30.70 L22.50 30.49" />
    <path d="M26.05 30.93 L25.39 31.30 L24.63 31.76" />
    <path d="M28.66 33.64 L27.63 34.47 L26.47 35.29" />
    <path d="M28.66 33.64 L28.15 34.47 L27.70 35.28" />
    <path d="M31.19 29.59 L31.38 28.75 L31.41 27.71" />
    <path d="M31.19 29.59 L31.38 28.90 L31.56 28.37" />
    <path d="M32.73 34.73 L33.21 35.39 L33.43 36.26" />
    <path d="M34.32 29.68 L35.50 28.82 L36.62 28.09" />
    <path d="M34.32 29.68 L35.10 30.47 L35.55 30.96" />
    <path d="M30.53 33.84 L30.52 34.15 L30.47 34.47" />
    <path d="M30.34 29.53 L30.31 28.65 L30.19 27.58" />
    <path d="M30.24 30.94 L29.95 31.08 L29.62 31.14" />
  </g>
  
  <!-- Neuron cell body (soma) - scaled from r=6 to r=1.95 (6 * 0.325), 30% bigger -->
  <circle cx="32" cy="32" r="1.95" fill="black"/>
</svg>
